<?xml version="1.0" encoding="utf-8"?>
<!-- Generator: Adobe Illustrator 22.0.0, SVG Export Plug-In . SVG Version: 6.00 Build 0)  -->
<svg version="1.1" xmlns="http://www.w3.org/2000/svg" xmlns:xlink="http://www.w3.org/1999/xlink" x="0px" y="0px"
	 viewBox="0 0 1000 1000" style="enable-background:new 0 0 1000 1000;" xml:space="preserve">
<style type="text/css">
	.st0{display:none;}
	.st1{display:inline;}
	.st2{fill:#FFFFFF;}
</style>
<g id="Layer_1" class="st0">
	<g id="EXlbHk.tif" class="st1">
		
			<image style="overflow:visible;" width="416" height="121" id="Layer_0_1_" xlink:href="96DFFE4426AA3605.png"  transform="matrix(1 0 0 1 292 439)">
		</image>
	</g>
</g>
<g id="Layer_2">
	<g>
		<polygon class="st2" points="572.2,310.7 671.9,11.7 452.7,11.7 353,310.7 		"/>
		<path class="st2" d="M353,121.3l-29.9,59.8l-127,70.6c-43.4,24.1-44.7,86.1-2.4,112.1l177.6,108.7c38.2,23.3,61.4,64.9,61.4,109.6
			v406.3l-315-185.5C87.5,785,69,752.5,69,717.5V368.8c0-63.2,35.5-121,91.7-149.6L353,121.3z"/>
		<path class="st2" d="M696.8,146.2l-19.9,34.9l127,70.6c43.4,24.1,44.7,86.1,2.4,112.1L628.7,472.4
			c-38.2,23.3-61.4,64.9-61.4,109.6v406.3l315-185.5c30.2-17.8,48.7-50.2,48.7-85.3V368.8c0-63.2-35.5-121-91.7-149.6L696.8,146.2z"
			/>
	</g>
</g>
</svg>
